<svg xmlns="http://www.w3.org/2000/svg" viewBox="0 0 200 300" xmlns:c2pa="http://c2pa.org/manifest"><metadata><c2pa:manifest>AAAWgmp1bWIAAAAeanVtZGMycGEAEQAQgAAAqgA4m3EDYzJwYQAAABZcanVtYgAAAEdqdW1kYzJtYQARABCAAACqADibcQN1cm46YzJwYTphMDEzNGM4ZC0wZjcwLTRiMGQtODljNy1iMjZkYWNjNTE5ZGIAAAADl2p1bWIAAAApanVtZGMyYXMAEQAQgAAAqgA4m3EDYzJwYS5hc3NlcnRpb25zAAAAALxqdW1iAAAARGp1bWRjYm9yABEAEIAAAKoAOJtxE2MycGEuaW5ncmVkaWVudC52MwAAAAAYYzJzaH+RqG1IdZBb3WmJH3HB+3sAAABwY2JvcqNpZGM6Zm9ybWF0bWltYWdlL3N2Zyt4bWxqaW5zdGFuY2VJRHgseG1wOmlpZDo0MmI5MjZmOS0xZGNjLTQzMDUtYTdlOC01MjdhZmM1YmQ4MTlscmVsYXRpb25zaGlwaHBhcmVudE9mAAAB4mp1bWIAAABBanVtZGNib3IAEQAQgAAAqgA4m3ETYzJwYS5hY3Rpb25zLnYyAAAAABhjMnNo+F/ochfJr6xy/vwY+v5QhQAAAZljYm9yomdhY3Rpb25zgqJmYWN0aW9ua2MycGEub3BlbmVkanBhcmFtZXRlcnOha2luZ3JlZGllbnRzgaJjdXJseC1zZWxmI2p1bWJmPWMycGEuYXNzZXJ0aW9ucy9jMnBhLmluZ3JlZGllbnQudjNkaGFzaFggWqyi8wciPp0y/I4pwrK+eZ3VMJuRVBwNi9TLWA9aqN+kZmFjdGlvbngdY29tLmFudGhyb3BpYy5jbGF1ZGUucHJvdmlkZWRqcGFyYW1ldGVyc6F4H2NvbS5hbnRocm9waWMub3JpZ2luLWNvbmZpZGVuY2VndW5rbm93bmtkZXNjcmlwdGlvbnhmQ2xhdWRlIHByb3ZpZGVkIHRoaXMgZmlsZSBhdCB0aGUgcmVxdWVzdCBvZiBhIHVzZXIgYW5kIG1heSBoYXZlIGNyZWF0ZWQgb3IgbW9kaWZpZWQgdGhlIGZpbGUgY29udGVudHMubXNvZnR3YXJlQWdlbnShZG5hbWVmQ2xhdWRlcmFsbEFjdGlvbnNJbmNsdWRlZPUAAADIanVtYgAAAEBqdW1kY2JvcgARABCAAACqADibcRNjMnBhLmhhc2guZGF0YQAAAAAYYzJzaECdOP8TlnSfggtixQE8bdcAAACAY2JvcqVjYWxnZnNoYTI1NmNwYWRNAAAAAAAAAAAAAAAAAGRoYXNoWCD4Yz4KHs8AhM3QF47Dc/XM67uFEAvV0HRzI1KJ3r3RAGRuYW1lbmp1bWJmIG1hbmlmZXN0amV4Y2x1c2lvbnOBomVzdGFydBh9Zmxlbmd0aBkeBAAAAj5qdW1iAAAAJ2p1bWRjMmNsABEAEIAAAKoAOJtxA2MycGEuY2xhaW0udjIAAAACD2Nib3KlY2FsZ2ZzaGEyNTZpc2lnbmF0dXJleE1zZWxmI2p1bWJmPS9jMnBhL3VybjpjMnBhOmEwMTM0YzhkLTBmNzAtNGIwZC04OWM3LWIyNmRhY2M1MTlkYi9jMnBhLnNpZ25hdHVyZWppbnN0YW5jZUlEeCx4bXA6aWlkOjU4ZTA4NTYyLTIxYWQtNDc2Ny1hOWNhLTFlYTc0Zjc2NGMwYXJjcmVhdGVkX2Fzc2VydGlvbnODomN1cmx4LXNlbGYjanVtYmY9YzJwYS5hc3NlcnRpb25zL2MycGEuaW5ncmVkaWVudC52M2RoYXNoWCBarKLzByI+nTL8jinCsr55ndUwm5FUHA2L1MtYD1qo36JjdXJseCpzZWxmI2p1bWJmPWMycGEuYXNzZXJ0aW9ucy9jMnBhLmFjdGlvbnMudjJkaGFzaFgg7/x4WiNsZlOA0hL3Bz4zROxDMmmafRO1iKgcxdJtFpuiY3VybHgpc2VsZiNqdW1iZj1jMnBhLmFzc2VydGlvbnMvYzJwYS5oYXNoLmRhdGFkaGFzaFgg2wMVU/VT6uDx7k/PcP80dwVBJXItg1JxXXY42pqEt950Y2xhaW1fZ2VuZXJhdG9yX2luZm+jZG5hbWVvQW50aHJvcGljIEZpbGVzZ3ZlcnNpb25lMS4wLjBrc3BlY1ZlcnNpb25lMi40LjAAABA4anVtYgAAAChqdW1kYzJjcwARABCAAACqADibcQNjMnBhLnNpZ25hdHVyZQAAABAIY2JvctKEWQISogEmGCFZAgowggIGMIIBjaADAgECAhRA5aAK7sI50L64g/oGQgU9Z1UTADAKBggqhkjOPQQDAzBJMRcwFQYDVQQKEw5BbnRocm9waWMsIFBCQzEuMCwGA1UEAxMlQW50aHJvcGljIENvbnRlbnQgQ3JlZGVudGlhbHMgUm9vdCBDQTAeFw0yNjA4MDcxODQzNTZaFw0yODA4MDYxOTQzNTZaMEQxFzAVBgNVBAoTDkFudGhyb3BpYywgUEJDMSkwJwYDVQQDEyBBbnRocm9waWMgQ2xhdWRlIENvbnRlbnQgU2lnbmluZzBZMBMGByqGSM49AgEGCCqGSM49AwEHA0IABJh6CmvLUBgFFNU0vUKlOVtE6djd17L5SuwX0LemFisBM3dkd/3cyjxFA3Qo5S46fX0/ihY0VZ7mfb9KF703t5OjWDBWMA4GA1UdDwEB/wQEAwIHgDAVBgNVHSUEDjAMBgorBgEEAYPoXgIBMAwGA1UdEwEB/wQCMAAwHwYDVR0jBBgwFoAUzlHiBIFOZFsj+OPEz5o+nMHXXMIwCgYIKoZIzj0EAwMDZwAwZAIwMXMdFJ4BetLLVY7ORuE9noqbbAZOZn/aArXyTwFAZfKrPzxF2vPoJNf1+UCdg1XGAjBwX1zd9WGqYkqmL5SFqw1QySjr1zJfpJM9+1rdDwSPLMOPOjKuiXjoU/pUUeG9RwmhY3BhZFkNngAAAAAAAAAAAAAAAAAAAAAAAAAAAAAAAAAAAAAAAAAAAAAAAAAAAAAAAAAAAAAAAAAAAAAAAAAAAAAAAAAAAAAAAAAAAAAAAAAAAAAAAAAAAAAAAAAAAAAAAAAAAAAAAAAAAAAAAAAAAAAAAAAAAAAAAAAAAAAAAAAAAAAAAAAAAAAAAAAAAAAAAAAAAAAAAAAAAAAAAAAAAAAAAAAAAAAAAAAAAAAAAAAAAAAAAAAAAAAAAAAAAAAAAAAAAAAAAAAAAAAAAAAAAAAAAAAAAAAAAAAAAAAAAAAAAAAAAAAAAAAAAAAAAAAAAAAAAAAAAAAAAAAAAAAAAAAAAAAAAAAAAAAAAAAAAAAAAAAAAAAAAAAAAAAAAAAAAAAAAAAAAAAAAAAAAAAAAAAAAAAAAAAAAAAAAAAAAAAAAAAAAAAAAAAAAAAAAAAAAAAAAAAAAAAAAAAAAAAAAAAAAAAAAAAAAAAAAAAAAAAAAAAAAAAAAAAAAAAAAAAAAAAAAAAAAAAAAAAAAAAAAAAAAAAAAAAAAAAAAAAAAAAAAAAAAAAAAAAAAAAAAAAAAAAAAAAAAAAAAAAAAAAAAAAAAAAAAAAAAAAAAAAAAAAAAAAAAAAAAAAAAAAAAAAAAAAAAAAAAAAAAAAAAAAAAAAAAAAAAAAAAAAAAAAAAAAAAAAAAAAAAAAAAAAAAAAAAAAAAAAAAAAAAAAAAAAAAAAAAAAAAAAAAAAAAAAAAAAAAAAAAAAAAAAAAAAAAAAAAAAAAAAAAAAAAAAAAAAAAAAAAAAAAAAAAAAAAAAAAAAAAAAAAAAAAAAAAAAAAAAAAAAAAAAAAAAAAAAAAAAAAAAAAAAAAAAAAAAAAAAAAAAAAAAAAAAAAAAAAAAAAAAAAAAAAAAAAAAAAAAAAAAAAAAAAAAAAAAAAAAAAAAAAAAAAAAAAAAAAAAAAAAAAAAAAAAAAAAAAAAAAAAAAAAAAAAAAAAAAAAAAAAAAAAAAAAAAAAAAAAAAAAAAAAAAAAAAAAAAAAAAAAAAAAAAAAAAAAAAAAAAAAAAAAAAAAAAAAAAAAAAAAAAAAAAAAAAAAAAAAAAAAAAAAAAAAAAAAAAAAAAAAAAAAAAAAAAAAAAAAAAAAAAAAAAAAAAAAAAAAAAAAAAAAAAAAAAAAAAAAAAAAAAAAAAAAAAAAAAAAAAAAAAAAAAAAAAAAAAAAAAAAAAAAAAAAAAAAAAAAAAAAAAAAAAAAAAAAAAAAAAAAAAAAAAAAAAAAAAAAAAAAAAAAAAAAAAAAAAAAAAAAAAAAAAAAAAAAAAAAAAAAAAAAAAAAAAAAAAAAAAAAAAAAAAAAAAAAAAAAAAAAAAAAAAAAAAAAAAAAAAAAAAAAAAAAAAAAAAAAAAAAAAAAAAAAAAAAAAAAAAAAAAAAAAAAAAAAAAAAAAAAAAAAAAAAAAAAAAAAAAAAAAAAAAAAAAAAAAAAAAAAAAAAAAAAAAAAAAAAAAAAAAAAAAAAAAAAAAAAAAAAAAAAAAAAAAAAAAAAAAAAAAAAAAAAAAAAAAAAAAAAAAAAAAAAAAAAAAAAAAAAAAAAAAAAAAAAAAAAAAAAAAAAAAAAAAAAAAAAAAAAAAAAAAAAAAAAAAAAAAAAAAAAAAAAAAAAAAAAAAAAAAAAAAAAAAAAAAAAAAAAAAAAAAAAAAAAAAAAAAAAAAAAAAAAAAAAAAAAAAAAAAAAAAAAAAAAAAAAAAAAAAAAAAAAAAAAAAAAAAAAAAAAAAAAAAAAAAAAAAAAAAAAAAAAAAAAAAAAAAAAAAAAAAAAAAAAAAAAAAAAAAAAAAAAAAAAAAAAAAAAAAAAAAAAAAAAAAAAAAAAAAAAAAAAAAAAAAAAAAAAAAAAAAAAAAAAAAAAAAAAAAAAAAAAAAAAAAAAAAAAAAAAAAAAAAAAAAAAAAAAAAAAAAAAAAAAAAAAAAAAAAAAAAAAAAAAAAAAAAAAAAAAAAAAAAAAAAAAAAAAAAAAAAAAAAAAAAAAAAAAAAAAAAAAAAAAAAAAAAAAAAAAAAAAAAAAAAAAAAAAAAAAAAAAAAAAAAAAAAAAAAAAAAAAAAAAAAAAAAAAAAAAAAAAAAAAAAAAAAAAAAAAAAAAAAAAAAAAAAAAAAAAAAAAAAAAAAAAAAAAAAAAAAAAAAAAAAAAAAAAAAAAAAAAAAAAAAAAAAAAAAAAAAAAAAAAAAAAAAAAAAAAAAAAAAAAAAAAAAAAAAAAAAAAAAAAAAAAAAAAAAAAAAAAAAAAAAAAAAAAAAAAAAAAAAAAAAAAAAAAAAAAAAAAAAAAAAAAAAAAAAAAAAAAAAAAAAAAAAAAAAAAAAAAAAAAAAAAAAAAAAAAAAAAAAAAAAAAAAAAAAAAAAAAAAAAAAAAAAAAAAAAAAAAAAAAAAAAAAAAAAAAAAAAAAAAAAAAAAAAAAAAAAAAAAAAAAAAAAAAAAAAAAAAAAAAAAAAAAAAAAAAAAAAAAAAAAAAAAAAAAAAAAAAAAAAAAAAAAAAAAAAAAAAAAAAAAAAAAAAAAAAAAAAAAAAAAAAAAAAAAAAAAAAAAAAAAAAAAAAAAAAAAAAAAAAAAAAAAAAAAAAAAAAAAAAAAAAAAAAAAAAAAAAAAAAAAAAAAAAAAAAAAAAAAAAAAAAAAAAAAAAAAAAAAAAAAAAAAAAAAAAAAAAAAAAAAAAAAAAAAAAAAAAAAAAAAAAAAAAAAAAAAAAAAAAAAAAAAAAAAAAAAAAAAAAAAAAAAAAAAAAAAAAAAAAAAAAAAAAAAAAAAAAAAAAAAAAAAAAAAAAAAAAAAAAAAAAAAAAAAAAAAAAAAAAAAAAAAAAAAAAAAAAAAAAAAAAAAAAAAAAAAAAAAAAAAAAAAAAAAAAAAAAAAAAAAAAAAAAAAAAAAAAAAAAAAAAAAAAAAAAAAAAAAAAAAAAAAAAAAAAAAAAAAAAAAAAAAAAAAAAAAAAAAAAAAAAAAAAAAAAAAAAAAAAAAAAAAAAAAAAAAAAAAAAAAAAAAAAAAAAAAAAAAAAAAAAAAAAAAAAAAAAAAAAAAAAAAAAAAAAAAAAAAAAAAAAAAAAAAAAAAAAAAAAAAAAAAAAAAAAAAAAAAAAAAAAAAAAAAAAAAAAAAAAAAAAAAAAAAAAAAAAAAAAAAAAAAAAAAAAAAAAAAAAAAAAAAAAAAAAAAAAAAAAAAAAAAAAAAAAAAAAAAAAAAAAAAAAAAAAAAAAAAAAAAAAAAAAAAAAAAAAAAAAAAAAAAAAAAAAAAAAAAAAAAAAAAAAAAAAAAAAAAAAAAAAAAAAAAAAAAAAAAAAAAAAAAAAAAAAAAAAAAAAAAAAAAAAAAAAAAAAAAAAAAAAAAAAAAAAAAAAAAAAAAAAAAAAAAAAAAAAAAAAAAAAAAAAAAAAAAAAAAAAAAAAAAAAAAAAAAAAAAAAAAAAAAAAAAAAAAAAAAAAAAAAAAAAAAAAAAAAAAAAAAAAAAAAAAAAAAAAAAAAAAAAAAAAAAAAAAAAAAAAAAAAAAAAAAAAAAAAAAAAAAAAAAAAAAAAAAAAAAAAAAAAAAAAAAAAAAAAAAAAAAAAAAAAAAAAAAAAAAAAAAAAAAAAAAAAAAAAAAAAAAAAAAAAAAAAAAAAAAAAAAAAAAAAAAAAAAAAAAAAAAAAAAAAAAAAAAAAAAAAAAAAAAAAAAAAAAAAAAAAAAAAAAAAAAAAAAAAAAAAAAAAAAAAAAAAAAAAAAAAAAAAAAAAAAAAAAAAAAAAAAAAAAAAAAAAAAAAAAAAAAAAAAAAAAAAAAAAAAAAAAAAAAAAAAAAAAAAAAAAAAAAAAAAAAAAAAAAAAAAAAAAAAAAAAAAAAAAAAAAAAAAAAAAAAAAAAAAAAAAAAAAAAAAAAAAAAAAAAAAAAAAAAAAAAAAAAAAAAAAAAAAAAAAAAAAAAAAAAAAAAAAAAAAAAAAAAAAAAAAAAAAAAAAAAAAAAAAAAAAAAAAAAAAAAAAAAAAAAAAAAAAAAAAAAAAAAAAAAAAAAAAAAAAAAAAAAAAAAAAAAAAAAAAAAAAAAAAAAAAAAAAAAAAAAAAAAAAAAAAAAAAAAAAAAAAAAAAAAAAAAAAAAAAAAAAAAAAAAAAAAAAAAAAAAAAAAAAAAAAAAAAAAAAAAAAAAAAAAAAAAAAAAAAAAAAAAAAAAAAAAAAAAAAAAAAAAAAAAAAAAAAAAAAAAAAAAAAAAAAAAAAAAAAAAAAAAAAAAAAAAAAAAAAAAAAAAAAAAAAAAAAAAAAAAAAAAAAAAAAAAAAAAAAAAAAAAAAAAAAAAAAAAAAAAAAAAAAAAAAAAAAAAAAAAAAAAAAAAAAAAAAAAAAAAAAAAAAAAAAAAAAAAAAAAAAAAAAAAAAAAAAAAAAAAAAAAAAAAAAAAAAAAAAAAAAAAAAAAAAAAAAAAAAAAAAAAAAAAAAAAAAAAAAAAAAAAAAAAAAAAAAAAAAAAAAAAAAAAAAAAAAAAAAAAAAAAAAAAAAAAAAAAAAAAAAAAAAAAAAAAAAAAAAAAAAAAAAAAAAAAAAAAAAAAAAAAAAAAAAAAAAAAAAAAAAAAAAAAAAAAAAAAAAAAAAAAAAAAAAAAAAAAAAAAAAAAAAAAAAAAAAAAAAAAAAAAAAAAAAAAAAAAAAAAAAAAAAAAAAAAAAAAAAAAPZYQEbI8wk4Vga8clFSU/WGrEvJUiOCIABvaNwZOu4n+p5IhSDO6PZnYKClc0orZwF2mXSiY73C2QPadcOYUtv81ns=</c2pa:manifest></metadata><defs><clipPath id="c"><path d="M100 26C142 26 166 56 166 100C166 140 140 172 112 186L88 186C60 172 34 140 34 100C34 56 58 26 100 26Z"/></clipPath></defs>
<path d="M100 6C152 6 184 44 184 100C184 152 152 192 120 206L113 236H87L80 206C48 192 16 152 16 100C16 44 48 6 100 6Z" fill="#3b4a66"/>
<path d="M100 18C146 18 172 50 172 100C172 148 144 184 116 198L84 198C56 184 28 148 28 100C28 50 54 18 100 18Z" fill="#5d7096"/>
<g clip-path="url(#c)"><circle cx="48" cy="40" r="3.2" fill="#fff" opacity=".92"/><circle cx="60" cy="40" r="3.2" fill="#fff" opacity=".92"/><circle cx="72" cy="40" r="3.2" fill="#fff" opacity=".92"/><circle cx="84" cy="40" r="3.2" fill="#fff" opacity=".92"/><circle cx="96" cy="40" r="3.2" fill="#fff" opacity=".92"/><circle cx="108" cy="40" r="3.2" fill="#fff" opacity=".92"/><circle cx="120" cy="40" r="3.2" fill="#fff" opacity=".92"/><circle cx="132" cy="40" r="3.2" fill="#fff" opacity=".92"/><circle cx="144" cy="40" r="3.2" fill="#fff" opacity=".92"/><circle cx="156" cy="40" r="3.2" fill="#fff" opacity=".92"/><circle cx="54" cy="53" r="3.2" fill="#fff" opacity=".92"/><circle cx="66" cy="53" r="3.2" fill="#fff" opacity=".92"/><circle cx="78" cy="53" r="3.2" fill="#fff" opacity=".92"/><circle cx="90" cy="53" r="3.2" fill="#fff" opacity=".92"/><circle cx="102" cy="53" r="3.2" fill="#fff" opacity=".92"/><circle cx="114" cy="53" r="3.2" fill="#fff" opacity=".92"/><circle cx="126" cy="53" r="3.2" fill="#fff" opacity=".92"/><circle cx="138" cy="53" r="3.2" fill="#fff" opacity=".92"/><circle cx="150" cy="53" r="3.2" fill="#fff" opacity=".92"/><circle cx="48" cy="66" r="3.2" fill="#fff" opacity=".92"/><circle cx="60" cy="66" r="3.2" fill="#fff" opacity=".92"/><circle cx="72" cy="66" r="3.2" fill="#fff" opacity=".92"/><circle cx="84" cy="66" r="3.2" fill="#fff" opacity=".92"/><circle cx="96" cy="66" r="3.2" fill="#fff" opacity=".92"/><circle cx="108" cy="66" r="3.2" fill="#fff" opacity=".92"/><circle cx="120" cy="66" r="3.2" fill="#fff" opacity=".92"/><circle cx="132" cy="66" r="3.2" fill="#fff" opacity=".92"/><circle cx="144" cy="66" r="3.2" fill="#fff" opacity=".92"/><circle cx="156" cy="66" r="3.2" fill="#fff" opacity=".92"/><circle cx="54" cy="79" r="3.2" fill="#fff" opacity=".92"/><circle cx="66" cy="79" r="3.2" fill="#fff" opacity=".92"/><circle cx="78" cy="79" r="3.2" fill="#fff" opacity=".92"/><circle cx="90" cy="79" r="3.2" fill="#fff" opacity=".92"/><circle cx="102" cy="79" r="3.2" fill="#fff" opacity=".92"/><circle cx="114" cy="79" r="3.2" fill="#fff" opacity=".92"/><circle cx="126" cy="79" r="3.2" fill="#fff" opacity=".92"/><circle cx="138" cy="79" r="3.2" fill="#fff" opacity=".92"/><circle cx="150" cy="79" r="3.2" fill="#fff" opacity=".92"/><circle cx="48" cy="92" r="3.2" fill="#fff" opacity=".92"/><circle cx="60" cy="92" r="3.2" fill="#fff" opacity=".92"/><circle cx="72" cy="92" r="3.2" fill="#fff" opacity=".92"/><circle cx="84" cy="92" r="3.2" fill="#fff" opacity=".92"/><circle cx="96" cy="92" r="3.2" fill="#fff" opacity=".92"/><circle cx="108" cy="92" r="3.2" fill="#fff" opacity=".92"/><circle cx="120" cy="92" r="3.2" fill="#fff" opacity=".92"/><circle cx="132" cy="92" r="3.2" fill="#fff" opacity=".92"/><circle cx="144" cy="92" r="3.2" fill="#fff" opacity=".92"/><circle cx="156" cy="92" r="3.2" fill="#fff" opacity=".92"/><circle cx="54" cy="105" r="3.2" fill="#fff" opacity=".92"/><circle cx="66" cy="105" r="3.2" fill="#fff" opacity=".92"/><circle cx="78" cy="105" r="3.2" fill="#fff" opacity=".92"/><circle cx="90" cy="105" r="3.2" fill="#fff" opacity=".92"/><circle cx="102" cy="105" r="3.2" fill="#fff" opacity=".92"/><circle cx="114" cy="105" r="3.2" fill="#fff" opacity=".92"/><circle cx="126" cy="105" r="3.2" fill="#fff" opacity=".92"/><circle cx="138" cy="105" r="3.2" fill="#fff" opacity=".92"/><circle cx="150" cy="105" r="3.2" fill="#fff" opacity=".92"/><circle cx="48" cy="118" r="3.2" fill="#fff" opacity=".92"/><circle cx="60" cy="118" r="3.2" fill="#fff" opacity=".92"/><circle cx="72" cy="118" r="3.2" fill="#fff" opacity=".92"/><circle cx="84" cy="118" r="3.2" fill="#fff" opacity=".92"/><circle cx="96" cy="118" r="3.2" fill="#fff" opacity=".92"/><circle cx="108" cy="118" r="3.2" fill="#fff" opacity=".92"/><circle cx="120" cy="118" r="3.2" fill="#fff" opacity=".92"/><circle cx="132" cy="118" r="3.2" fill="#fff" opacity=".92"/><circle cx="144" cy="118" r="3.2" fill="#fff" opacity=".92"/><circle cx="156" cy="118" r="3.2" fill="#fff" opacity=".92"/><circle cx="54" cy="131" r="3.2" fill="#fff" opacity=".92"/><circle cx="66" cy="131" r="3.2" fill="#fff" opacity=".92"/><circle cx="78" cy="131" r="3.2" fill="#fff" opacity=".92"/><circle cx="90" cy="131" r="3.2" fill="#fff" opacity=".92"/><circle cx="102" cy="131" r="3.2" fill="#fff" opacity=".92"/><circle cx="114" cy="131" r="3.2" fill="#fff" opacity=".92"/><circle cx="126" cy="131" r="3.2" fill="#fff" opacity=".92"/><circle cx="138" cy="131" r="3.2" fill="#fff" opacity=".92"/><circle cx="150" cy="131" r="3.2" fill="#fff" opacity=".92"/><circle cx="48" cy="144" r="3.2" fill="#fff" opacity=".92"/><circle cx="60" cy="144" r="3.2" fill="#fff" opacity=".92"/><circle cx="72" cy="144" r="3.2" fill="#fff" opacity=".92"/><circle cx="84" cy="144" r="3.2" fill="#fff" opacity=".92"/><circle cx="96" cy="144" r="3.2" fill="#fff" opacity=".92"/><circle cx="108" cy="144" r="3.2" fill="#fff" opacity=".92"/><circle cx="120" cy="144" r="3.2" fill="#fff" opacity=".92"/><circle cx="132" cy="144" r="3.2" fill="#fff" opacity=".92"/><circle cx="144" cy="144" r="3.2" fill="#fff" opacity=".92"/><circle cx="156" cy="144" r="3.2" fill="#fff" opacity=".92"/><circle cx="54" cy="157" r="3.2" fill="#fff" opacity=".92"/><circle cx="66" cy="157" r="3.2" fill="#fff" opacity=".92"/><circle cx="78" cy="157" r="3.2" fill="#fff" opacity=".92"/><circle cx="90" cy="157" r="3.2" fill="#fff" opacity=".92"/><circle cx="102" cy="157" r="3.2" fill="#fff" opacity=".92"/><circle cx="114" cy="157" r="3.2" fill="#fff" opacity=".92"/><circle cx="126" cy="157" r="3.2" fill="#fff" opacity=".92"/><circle cx="138" cy="157" r="3.2" fill="#fff" opacity=".92"/><circle cx="150" cy="157" r="3.2" fill="#fff" opacity=".92"/><circle cx="48" cy="170" r="3.2" fill="#fff" opacity=".92"/><circle cx="60" cy="170" r="3.2" fill="#fff" opacity=".92"/><circle cx="72" cy="170" r="3.2" fill="#fff" opacity=".92"/><circle cx="84" cy="170" r="3.2" fill="#fff" opacity=".92"/><circle cx="96" cy="170" r="3.2" fill="#fff" opacity=".92"/><circle cx="108" cy="170" r="3.2" fill="#fff" opacity=".92"/><circle cx="120" cy="170" r="3.2" fill="#fff" opacity=".92"/><circle cx="132" cy="170" r="3.2" fill="#fff" opacity=".92"/><circle cx="144" cy="170" r="3.2" fill="#fff" opacity=".92"/><circle cx="156" cy="170" r="3.2" fill="#fff" opacity=".92"/><circle cx="54" cy="183" r="3.2" fill="#fff" opacity=".92"/><circle cx="66" cy="183" r="3.2" fill="#fff" opacity=".92"/><circle cx="78" cy="183" r="3.2" fill="#fff" opacity=".92"/><circle cx="90" cy="183" r="3.2" fill="#fff" opacity=".92"/><circle cx="102" cy="183" r="3.2" fill="#fff" opacity=".92"/><circle cx="114" cy="183" r="3.2" fill="#fff" opacity=".92"/><circle cx="126" cy="183" r="3.2" fill="#fff" opacity=".92"/><circle cx="138" cy="183" r="3.2" fill="#fff" opacity=".92"/><circle cx="150" cy="183" r="3.2" fill="#fff" opacity=".92"/><path d="M100 20L150 100L100 190L50 100Z" fill="#fff" opacity=".35"/></g>
<rect x="88" y="230" width="24" height="64" rx="8" fill="#1b1b1f"/><rect x="88" y="244" width="24" height="5" fill="#0066FF"/><rect x="88" y="262" width="24" height="5" fill="#0066FF"/>
<path d="M92 198h16l4 32H88z" fill="#2a2a30"/><rect x="84" y="206" width="32" height="5" rx="2" fill="#0066FF"/></svg>